<svg width="243" height="513" viewBox="0 0 243 513" fill="none" xmlns="http://www.w3.org/2000/svg">
<path d="M220.777 512.087C217.97 512.104 215.187 511.565 212.587 510.504C209.988 509.442 207.624 507.878 205.631 505.901L31.3373 331.607C21.4038 321.699 13.5227 309.928 8.14534 296.969C2.76796 284.01 0 270.118 0 256.087C0 242.057 2.76796 228.164 8.14534 215.205C13.5227 202.246 21.4038 190.476 31.3373 180.567L205.631 6.27396C207.62 4.28487 209.981 2.70703 212.58 1.63055C215.179 0.554061 217.964 2.09585e-08 220.777 0C223.59 -2.09585e-08 226.376 0.554061 228.975 1.63055C231.574 2.70703 233.935 4.28487 235.924 6.27396C237.913 8.26304 239.491 10.6244 240.567 13.2233C241.644 15.8222 242.198 18.6076 242.198 21.4206C242.198 24.2336 241.644 27.0191 240.567 29.6179C239.491 32.2168 237.913 34.5782 235.924 36.5673L61.6307 210.861C49.6456 222.861 42.9137 239.127 42.9137 256.087C42.9137 273.047 49.6456 289.314 61.6307 301.314L235.924 475.607C237.924 477.591 239.511 479.95 240.594 482.55C241.677 485.149 242.234 487.938 242.234 490.754C242.234 493.57 241.677 496.359 240.594 498.958C239.511 501.558 237.924 503.917 235.924 505.901C233.931 507.878 231.567 509.442 228.967 510.504C226.368 511.565 223.585 512.104 220.777 512.087Z" fill="white"/>
</svg>
